<svg width="29" height="29" viewBox="0 0 29 29" fill="none" xmlns="http://www.w3.org/2000/svg">
<g clip-path="url(#clip0_45_24)">
<path d="M28.6461 26.9374L21.4335 19.7248C23.399 17.321 24.3654 14.2536 24.1327 11.1572C23.9001 8.06083 22.4862 5.1723 20.1836 3.08913C17.881 1.00595 14.8657 -0.112509 11.7616 -0.0348958C8.65744 0.0427176 5.70187 1.31046 3.50622 3.50611C1.31057 5.70176 0.0428244 8.65733 -0.034789 11.7615C-0.112402 14.8656 1.00605 17.8809 3.08923 20.1835C5.17241 22.4861 8.06093 23.9 11.1573 24.1326C14.2537 24.3653 17.3211 23.3989 19.7249 21.4334L26.9375 28.646C27.1654 28.8661 27.4706 28.9879 27.7874 28.9851C28.1042 28.9824 28.4073 28.8553 28.6313 28.6312C28.8554 28.4072 28.9825 28.1041 28.9852 27.7873C28.988 27.4705 28.8662 27.1653 28.6461 26.9374ZM12.0834 21.75C10.1715 21.75 8.3026 21.1831 6.71292 20.1209C5.12325 19.0587 3.88425 17.549 3.1526 15.7826C2.42095 14.0162 2.22952 12.0726 2.60251 10.1975C2.9755 8.32231 3.89616 6.59987 5.24807 5.24796C6.59998 3.89606 8.32241 2.97539 10.1976 2.6024C12.0727 2.22941 14.0164 2.42085 15.7827 3.15249C17.5491 3.88414 19.0588 5.12314 20.121 6.71282C21.1832 8.30249 21.7501 10.1714 21.7501 12.0833C21.7472 14.6462 20.7279 17.1033 18.9156 18.9155C17.1034 20.7277 14.6463 21.7471 12.0834 21.75Z" fill="black" fill-opacity="0.4"/>
</g>
<defs>
<clipPath id="clip0_45_24">
<rect width="29" height="29" fill="white"/>
</clipPath>
</defs>
</svg>
