<?xml version="1.0" encoding="UTF-8" standalone="no"?>
<svg
   xmlns:dc="http://purl.org/dc/elements/1.1/"
   xmlns:cc="http://creativecommons.org/ns#"
   xmlns:rdf="http://www.w3.org/1999/02/22-rdf-syntax-ns#"
   xmlns:svg="http://www.w3.org/2000/svg"
   xmlns="http://www.w3.org/2000/svg"
   id="svg9224"
   version="1.1"
   viewBox="0 0 25.421356 25.433265"
   height="25.433264mm"
   width="25.421356mm">
  <defs
     id="defs9218" />
  <metadata
     id="metadata9221">
    <rdf:RDF>
      <cc:Work
         rdf:about="">
        <dc:format>image/svg+xml</dc:format>
        <dc:type
           rdf:resource="http://purl.org/dc/dcmitype/StillImage" />
        <dc:title></dc:title>
      </cc:Work>
    </rdf:RDF>
  </metadata>
  <g
     transform="translate(-113.50085,-151.73979)"
     id="layer1">
    <g
       id="g11964"
       transform="matrix(0.35277777,0,0,-0.35277777,29.785198,191.94599)">
      <g
         id="g780"
         transform="translate(295.9336,55.3232)">
        <path
           d="m 0,0 c -12.48,-12.482 -32.717,-12.482 -45.199,0 -12.482,12.482 -12.482,32.719 0,45.201 z"
           style="fill:#ffc4c2;fill-opacity:1;fill-rule:nonzero;stroke:none"
           id="path782" />
      </g>
      <g
         id="g784"
         transform="translate(273.334,108.6357)">
        <path
           d="m 0,0 c -8.203,0 -15.916,-3.194 -21.717,-8.995 -11.973,-11.975 -11.972,-31.459 0.002,-43.434 5.801,-5.8 13.512,-8.996 21.716,-8.996 8.203,0 15.915,3.196 21.715,8.996 C 33.69,-40.454 33.69,-20.97 21.718,-8.995 15.917,-3.194 8.204,0 0,0 m 0.001,-63.925 c -8.872,0 -17.212,3.455 -23.483,9.729 -12.95,12.949 -12.951,34.019 -0.002,46.968 C -17.211,-0.955 -8.871,2.5 0,2.5 8.872,2.5 17.212,-0.955 23.485,-7.228 36.434,-20.178 36.433,-41.247 23.483,-54.196 17.211,-60.47 8.872,-63.925 0.001,-63.925"
           style="fill:#ff6583;fill-opacity:1;fill-rule:nonzero;stroke:none"
           id="path786" />
      </g>
      <g
         id="g788"
         transform="translate(273.334,58.6494)">
        <path
           d="m 0,0 c -10.628,0 -19.274,8.646 -19.274,19.273 0,10.629 8.646,19.276 19.274,19.276 0.47,0 0.85,-0.38 0.85,-0.85 C 0.85,37.229 0.47,36.85 0,36.85 -9.69,36.85 -17.574,28.965 -17.574,19.273 -17.574,9.583 -9.69,1.699 0,1.699 0.47,1.699 0.85,1.319 0.85,0.85 0.85,0.38 0.47,0 0,0"
           style="fill:#ff6583;fill-opacity:1;fill-rule:nonzero;stroke:none"
           id="path790" />
      </g>
      <g
         id="g792"
         transform="translate(273.334,54.4111)">
        <path
           d="m 0,0 c -12.965,0 -23.513,10.547 -23.513,23.512 0,12.966 10.548,23.513 23.513,23.513 0.47,0 0.85,-0.379 0.85,-0.849 0,-0.47 -0.38,-0.85 -0.85,-0.85 -12.027,0 -21.813,-9.786 -21.813,-21.814 C -21.813,11.484 -12.027,1.699 0,1.699 0.47,1.699 0.85,1.319 0.85,0.85 0.85,0.38 0.47,0 0,0"
           style="fill:#ff6583;fill-opacity:1;fill-rule:nonzero;stroke:none"
           id="path794" />
      </g>
      <g
         id="g796"
         transform="translate(273.334,50.1611)">
        <path
           d="m 0,0 c -15.309,0 -27.763,12.454 -27.763,27.762 0,15.309 12.454,27.763 27.763,27.763 0.47,0 0.85,-0.379 0.85,-0.849 0,-0.47 -0.38,-0.85 -0.85,-0.85 -14.371,0 -26.063,-11.692 -26.063,-26.064 C -26.063,13.391 -14.371,1.699 0,1.699 0.47,1.699 0.85,1.319 0.85,0.85 0.85,0.38 0.47,0 0,0"
           style="fill:#ff6583;fill-opacity:1;fill-rule:nonzero;stroke:none"
           id="path798" />
      </g>
      <g
         id="g800"
         transform="translate(286.0908,77.9229)">
        <path
           d="m 0,0 c 0,-7.045 -5.71,-12.756 -12.757,-12.756 -7.045,0 -12.756,5.711 -12.756,12.756 0,7.047 5.711,12.757 12.756,12.757 C -5.71,12.757 0,7.047 0,0"
           style="fill:#ffffe6;fill-opacity:1;fill-rule:nonzero;stroke:none"
           id="path802" />
      </g>
      <g
         id="g804"
         transform="translate(273.334,89.4297)">
        <path
           d="m 0,0 c -6.344,0 -11.506,-5.162 -11.506,-11.507 0,-6.345 5.162,-11.506 11.506,-11.506 6.345,0 11.507,5.161 11.507,11.506 C 11.507,-5.162 6.345,0 0,0 m 0,-25.513 c -7.723,0 -14.006,6.284 -14.006,14.006 0,7.724 6.283,14.007 14.006,14.007 7.724,0 14.007,-6.283 14.007,-14.007 0,-7.722 -6.283,-14.006 -14.007,-14.006"
           style="fill:#ff6583;fill-opacity:1;fill-rule:nonzero;stroke:none"
           id="path806" />
      </g>
      <g
         id="g808"
         transform="translate(276.1699,77.9229)">
        <path
           d="m 0,0 c 0,-1.564 -1.27,-2.834 -2.836,-2.834 -1.564,0 -2.834,1.27 -2.834,2.834 0,1.566 1.27,2.836 2.834,2.836 C -1.27,2.836 0,1.566 0,0"
           style="fill:#ff6583;fill-opacity:1;fill-rule:nonzero;stroke:none"
           id="path810" />
      </g>
    </g>
  </g>
</svg>
